<svg width="155" height="37" viewBox="0 0 155 37" fill="none" xmlns="http://www.w3.org/2000/svg">
<path d="M44.688 26.126C43.764 26.126 42.936 25.976 42.204 25.676C41.472 25.376 40.884 24.932 40.44 24.344C40.008 23.756 39.78 23.048 39.756 22.22H43.032C43.08 22.688 43.242 23.048 43.518 23.3C43.794 23.54 44.154 23.66 44.598 23.66C45.054 23.66 45.414 23.558 45.678 23.354C45.942 23.138 46.074 22.844 46.074 22.472C46.074 22.16 45.966 21.902 45.75 21.698C45.546 21.494 45.288 21.326 44.976 21.194C44.676 21.062 44.244 20.912 43.68 20.744C42.864 20.492 42.198 20.24 41.682 19.988C41.166 19.736 40.722 19.364 40.35 18.872C39.978 18.38 39.792 17.738 39.792 16.946C39.792 15.77 40.218 14.852 41.07 14.192C41.922 13.52 43.032 13.184 44.4 13.184C45.792 13.184 46.914 13.52 47.766 14.192C48.618 14.852 49.074 15.776 49.134 16.964H45.804C45.78 16.556 45.63 16.238 45.354 16.01C45.078 15.77 44.724 15.65 44.292 15.65C43.92 15.65 43.62 15.752 43.392 15.956C43.164 16.148 43.05 16.43 43.05 16.802C43.05 17.21 43.242 17.528 43.626 17.756C44.01 17.984 44.61 18.23 45.426 18.494C46.242 18.77 46.902 19.034 47.406 19.286C47.922 19.538 48.366 19.904 48.738 20.384C49.11 20.864 49.296 21.482 49.296 22.238C49.296 22.958 49.11 23.612 48.738 24.2C48.378 24.788 47.85 25.256 47.154 25.604C46.458 25.952 45.636 26.126 44.688 26.126ZM56.7882 23.39V26H55.2222C54.1062 26 53.2362 25.73 52.6122 25.19C51.9882 24.638 51.6762 23.744 51.6762 22.508V18.512H50.4522V15.956H51.6762V13.508H54.7542V15.956H56.7702V18.512H54.7542V22.544C54.7542 22.844 54.8262 23.06 54.9702 23.192C55.1142 23.324 55.3542 23.39 55.6902 23.39H56.7882ZM57.8907 20.96C57.8907 19.928 58.0827 19.022 58.4667 18.242C58.8627 17.462 59.3967 16.862 60.0687 16.442C60.7407 16.022 61.4907 15.812 62.3187 15.812C63.0267 15.812 63.6447 15.956 64.1727 16.244C64.7127 16.532 65.1267 16.91 65.4147 17.378V15.956H68.4927V26H65.4147V24.578C65.1147 25.046 64.6947 25.424 64.1547 25.712C63.6267 26 63.0087 26.144 62.3007 26.144C61.4847 26.144 60.7407 25.934 60.0687 25.514C59.3967 25.082 58.8627 24.476 58.4667 23.696C58.0827 22.904 57.8907 21.992 57.8907 20.96ZM65.4147 20.978C65.4147 20.21 65.1987 19.604 64.7667 19.16C64.3467 18.716 63.8307 18.494 63.2187 18.494C62.6067 18.494 62.0847 18.716 61.6527 19.16C61.2327 19.592 61.0227 20.192 61.0227 20.96C61.0227 21.728 61.2327 22.34 61.6527 22.796C62.0847 23.24 62.6067 23.462 63.2187 23.462C63.8307 23.462 64.3467 23.24 64.7667 22.796C65.1987 22.352 65.4147 21.746 65.4147 20.978ZM73.7975 17.63C74.1575 17.078 74.6075 16.646 75.1475 16.334C75.6875 16.01 76.2875 15.848 76.9475 15.848V19.106H76.1015C75.3335 19.106 74.7575 19.274 74.3735 19.61C73.9895 19.934 73.7975 20.51 73.7975 21.338V26H70.7195V15.956H73.7975V17.63ZM84.0167 23.39V26H82.4507C81.3347 26 80.4647 25.73 79.8407 25.19C79.2167 24.638 78.9047 23.744 78.9047 22.508V18.512H77.6807V15.956H78.9047V13.508H81.9827V15.956H83.9987V18.512H81.9827V22.544C81.9827 22.844 82.0547 23.06 82.1987 23.192C82.3427 23.324 82.5827 23.39 82.9187 23.39H84.0167ZM95.6492 15.956V26H92.5712V24.632C92.2592 25.076 91.8332 25.436 91.2932 25.712C90.7652 25.976 90.1772 26.108 89.5292 26.108C88.7612 26.108 88.0832 25.94 87.4952 25.604C86.9072 25.256 86.4512 24.758 86.1272 24.11C85.8032 23.462 85.6412 22.7 85.6412 21.824V15.956H88.7012V21.41C88.7012 22.082 88.8752 22.604 89.2232 22.976C89.5712 23.348 90.0392 23.534 90.6272 23.534C91.2272 23.534 91.7012 23.348 92.0492 22.976C92.3972 22.604 92.5712 22.082 92.5712 21.41V15.956H95.6492ZM100.938 17.378C101.238 16.91 101.652 16.532 102.18 16.244C102.708 15.956 103.326 15.812 104.034 15.812C104.862 15.812 105.612 16.022 106.284 16.442C106.956 16.862 107.484 17.462 107.868 18.242C108.264 19.022 108.462 19.928 108.462 20.96C108.462 21.992 108.264 22.904 107.868 23.696C107.484 24.476 106.956 25.082 106.284 25.514C105.612 25.934 104.862 26.144 104.034 26.144C103.338 26.144 102.72 26 102.18 25.712C101.652 25.424 101.238 25.052 100.938 24.596V30.788H97.8601V15.956H100.938V17.378ZM105.33 20.96C105.33 20.192 105.114 19.592 104.682 19.16C104.262 18.716 103.74 18.494 103.116 18.494C102.504 18.494 101.982 18.716 101.55 19.16C101.13 19.604 100.92 20.21 100.92 20.978C100.92 21.746 101.13 22.352 101.55 22.796C101.982 23.24 102.504 23.462 103.116 23.462C103.728 23.462 104.25 23.24 104.682 22.796C105.114 22.34 105.33 21.728 105.33 20.96ZM113.155 23.624H117.187V26H110.077V13.364H113.155V23.624ZM118.043 20.96C118.043 19.928 118.235 19.022 118.619 18.242C119.015 17.462 119.549 16.862 120.221 16.442C120.893 16.022 121.643 15.812 122.471 15.812C123.179 15.812 123.797 15.956 124.325 16.244C124.865 16.532 125.279 16.91 125.567 17.378V15.956H128.645V26H125.567V24.578C125.267 25.046 124.847 25.424 124.307 25.712C123.779 26 123.161 26.144 122.453 26.144C121.637 26.144 120.893 25.934 120.221 25.514C119.549 25.082 119.015 24.476 118.619 23.696C118.235 22.904 118.043 21.992 118.043 20.96ZM125.567 20.978C125.567 20.21 125.351 19.604 124.919 19.16C124.499 18.716 123.983 18.494 123.371 18.494C122.759 18.494 122.237 18.716 121.805 19.16C121.385 19.592 121.175 20.192 121.175 20.96C121.175 21.728 121.385 22.34 121.805 22.796C122.237 23.24 122.759 23.462 123.371 23.462C123.983 23.462 124.499 23.24 124.919 22.796C125.351 22.352 125.567 21.746 125.567 20.978ZM136.992 15.848C138.168 15.848 139.104 16.232 139.8 17C140.508 17.756 140.862 18.8 140.862 20.132V26H137.802V20.546C137.802 19.874 137.628 19.352 137.28 18.98C136.932 18.608 136.464 18.422 135.876 18.422C135.288 18.422 134.82 18.608 134.472 18.98C134.124 19.352 133.95 19.874 133.95 20.546V26H130.872V15.956H133.95V17.288C134.262 16.844 134.682 16.496 135.21 16.244C135.738 15.98 136.332 15.848 136.992 15.848ZM142.389 20.96C142.389 19.928 142.581 19.022 142.965 18.242C143.361 17.462 143.895 16.862 144.567 16.442C145.239 16.022 145.989 15.812 146.817 15.812C147.477 15.812 148.077 15.95 148.617 16.226C149.169 16.502 149.601 16.874 149.913 17.342V12.68H152.991V26H149.913V24.56C149.625 25.04 149.211 25.424 148.671 25.712C148.143 26 147.525 26.144 146.817 26.144C145.989 26.144 145.239 25.934 144.567 25.514C143.895 25.082 143.361 24.476 142.965 23.696C142.581 22.904 142.389 21.992 142.389 20.96ZM149.913 20.978C149.913 20.21 149.697 19.604 149.265 19.16C148.845 18.716 148.329 18.494 147.717 18.494C147.105 18.494 146.583 18.716 146.151 19.16C145.731 19.592 145.521 20.192 145.521 20.96C145.521 21.728 145.731 22.34 146.151 22.796C146.583 23.24 147.105 23.462 147.717 23.462C148.329 23.462 148.845 23.24 149.265 22.796C149.697 22.352 149.913 21.746 149.913 20.978Z" fill="#0F2137"/>
<g clip-path="url(#clip0_1_33)">
<path d="M20.2107 0.539326C16.7919 -0.368329 13.166 -0.132153 9.89686 1.21112C6.62773 2.55438 3.89871 4.92944 2.13429 7.96684C0.369871 11.0042 -0.331025 14.5337 0.140625 18.0062C0.612276 21.4787 2.23003 24.6996 4.74225 27.1678L22.6286 9.4656C23.2974 8.80315 23.7782 7.97812 24.0229 7.07343C24.2675 6.16874 24.2673 5.21625 24.0223 4.31167C23.7773 3.40708 23.296 2.58226 22.627 1.92009C21.9579 1.25791 21.1246 0.781711 20.2107 0.539326Z" fill="url(#paint0_linear_1_33)"/>
<path d="M6.78875 36.4601C10.2096 37.3707 13.8386 37.1359 17.1107 35.7925C20.3827 34.449 23.1142 32.0723 24.8796 29.0323C26.6451 25.9923 27.3455 22.4597 26.8717 18.9847C26.398 15.5097 24.7767 12.2873 22.2603 9.81934L4.37394 27.5338C3.70514 28.196 3.22416 29.0208 2.97933 29.9253C2.7345 30.8298 2.73443 31.7822 2.97913 32.6867C3.22383 33.5913 3.70469 34.4161 4.3734 35.0785C5.0421 35.7408 5.87512 36.2173 6.78875 36.4601Z" fill="url(#paint1_linear_1_33)"/>
<path style="mix-blend-mode:multiply" d="M22.2603 9.81934L4.37394 27.5338C3.70514 28.196 3.22416 29.0208 2.97933 29.9253C2.7345 30.8298 2.73443 31.7822 2.97913 32.6867C3.22383 33.5913 3.70469 34.4161 4.3734 35.0785C5.0421 35.7408 5.87512 36.2173 6.78875 36.4601C8.70142 36.965 10.6917 37.1169 12.6599 36.9081C4.81723 29.4393 22.2603 9.81934 22.2603 9.81934Z" fill="url(#paint2_linear_1_33)"/>
<g style="mix-blend-mode:multiply">
<path style="mix-blend-mode:multiply" d="M6.46017 36.3617C3.92136 28.58 19.1697 12.9092 21.8604 10.2273L4.37395 27.5336C3.72563 28.1755 3.25344 28.9705 3.00202 29.8433C2.7506 30.7162 2.72826 31.6381 2.93711 32.5219C3.14597 33.4057 3.57912 34.2222 4.19559 34.8941C4.81207 35.566 5.5915 36.0711 6.46017 36.3617Z" fill="url(#paint3_linear_1_33)"/>
<path style="mix-blend-mode:multiply" d="M22.2014 9.88984C22.22 9.86941 22.2396 9.84995 22.2603 9.83154L22.2014 9.88984Z" fill="url(#paint4_linear_1_33)"/>
</g>
<path style="mix-blend-mode:screen" d="M23.9404 7.3645L4.72113 27.1563L22.6292 9.46643C23.2273 8.87775 23.6766 8.15757 23.9404 7.3645Z" fill="url(#paint5_radial_1_33)"/>
</g>
<defs>
<linearGradient id="paint0_linear_1_33" x1="16.4102" y1="-16.6934" x2="10.5876" y2="20.6654" gradientUnits="userSpaceOnUse">
<stop stop-color="#0096D9"/>
<stop offset="1" stop-color="#00C198"/>
</linearGradient>
<linearGradient id="paint1_linear_1_33" x1="9.13537" y1="13.6181" x2="18.5045" y2="32.4248" gradientUnits="userSpaceOnUse">
<stop stop-color="#002DD9"/>
<stop offset="1" stop-color="#00B2AB"/>
</linearGradient>
<linearGradient id="paint2_linear_1_33" x1="23.8071" y1="-3.42432" x2="6.08252" y2="38.1714" gradientUnits="userSpaceOnUse">
<stop stop-color="#3482C0"/>
<stop offset="0.45" stop-color="#96BEDE"/>
<stop offset="0.83" stop-color="#E1EDF6"/>
<stop offset="1" stop-color="white"/>
</linearGradient>
<linearGradient id="paint3_linear_1_33" x1="1361.37" y1="132.275" x2="-132.261" y2="2238.51" gradientUnits="userSpaceOnUse">
<stop stop-color="#3482C0"/>
<stop offset="0.45" stop-color="#96BEDE"/>
<stop offset="0.83" stop-color="#E1EDF6"/>
<stop offset="1" stop-color="white"/>
</linearGradient>
<linearGradient id="paint4_linear_1_33" x1="25.6732" y1="3.26808" x2="10.5951" y2="32.7125" gradientUnits="userSpaceOnUse">
<stop stop-color="#569FA1"/>
<stop offset="0.36" stop-color="#97C4C5"/>
<stop offset="0.8" stop-color="#E2EEEF"/>
<stop offset="1" stop-color="white"/>
</linearGradient>
<radialGradient id="paint5_radial_1_33" cx="0" cy="0" r="1" gradientUnits="userSpaceOnUse" gradientTransform="translate(21.5938 32.382) scale(27.8184 27.5367)">
<stop stop-color="#FFFF00"/>
<stop offset="1"/>
</radialGradient>
<clipPath id="clip0_1_33">
<rect width="27" height="37" fill="white"/>
</clipPath>
</defs>
</svg>
